<svg viewBox="0 0 512 512" version="1.1" xmlns="http://www.w3.org/2000/svg">
    <path id="square" d="M294.645,512l-249.526,-0c-24.914,-0 -45.119,-20.205 -45.119,-45.119l0,-421.762c0,-24.914 20.205,-45.119 45.119,-45.119l421.762,0c24.914,0 45.119,20.205 45.119,45.119l-0,421.762c-0,2.815 -0.258,5.57 -0.751,8.242c-11.809,-1.057 -21.416,-10.87 -22.789,-22.562l-0,-134.968c-0,-32.564 -27.464,-60.616 -60.224,-60.616l-133.591,0c-32.76,0 -60.224,28.249 -60.224,60.616l0,134.18c0,32.368 27.856,60.227 60.224,60.227Zm193.44,-5.285c-6.321,3.373 -13.54,5.285 -21.204,5.285l-38.645,-0l0,-36.684l-133.591,0c-13.182,0 -23.54,-10.965 -23.54,-23.932l-0,-133.787c-0,-12.967 10.279,-23.933 23.54,-23.933l133.591,0c13.202,0 23.54,10.986 23.54,23.933l0,134.964c0,25.892 16.264,45.325 36.309,54.154Z" style="fill:#f99d2a;"/>
</svg>
